<?xml version='1.0' encoding='utf-8'?>
<svg xmlns="http://www.w3.org/2000/svg" viewBox="112 106 176 176" width="1024" height="1024" shape-rendering="geometricPrecision" text-rendering="geometricPrecision" color-interpolation-filters="sRGB" style="background: transparent;" preserveAspectRatio="xMidYMid meet">
  <defs>
    <radialGradient id="petalGrad" cx="40%" cy="25%" r="75%">
      <stop offset="0%" stop-color="#FF55FF" />
      <stop offset="45%" stop-color="#DF00FF" />
      <stop offset="100%" stop-color="#4A007A" />
    </radialGradient>
    <radialGradient id="petalGrad2" cx="40%" cy="25%" r="75%">
      <stop offset="0%" stop-color="#EE44EE" />
      <stop offset="45%" stop-color="#C200DF" />
      <stop offset="100%" stop-color="#38005E" />
    </radialGradient>
    <radialGradient id="gearGrad" cx="50%" cy="50%" r="50%">
      <stop offset="0%" stop-color="#D966FF" />
      <stop offset="60%" stop-color="#9B00CC" />
      <stop offset="100%" stop-color="#2A004A" />
    </radialGradient>
    <radialGradient id="centerGrad" cx="50%" cy="50%" r="50%">
      <stop offset="0%" stop-color="#FFFFFF" />
      <stop offset="35%" stop-color="#FFD6FF" />
      <stop offset="100%" stop-color="#DF00FF" />
    </radialGradient>
    </defs>
  <path d="M 217.53,164.05 L 217.53,164.05 L 219.71,157.33 L 218.85,155.04 L 220.10,149.88 L 216.63,144.96 L 217.03,141.42 L 210.49,134.59 L 210.42,132.80 L 200.00,125.00 L 200.00,121.00 L 200.00,125.00 L 200.00,125.00 L 189.51,134.59 L 189.58,132.80 L 183.37,144.96 L 182.97,141.42 L 181.15,155.04 L 179.90,149.88 L 182.47,164.05 A 40 40 0 0 1 217.53,164.05 Z" fill="url(#petalGrad)" stroke="#FF88FF" stroke-width="0.8" stroke-opacity="0.5" opacity="0.92" vector-effect="non-scaling-stroke" stroke-linejoin="round" stroke-linecap="round" />
  <path d="M 239.61,205.57 L 239.61,205.57 L 246.67,205.56 L 248.58,204.04 L 253.88,203.63 L 257.49,198.80 L 260.97,198.09 L 265.45,189.76 L 267.13,189.14 L 271.33,176.82 L 275.13,175.59 L 271.33,176.82 L 271.33,176.82 L 258.97,169.81 L 260.69,169.33 L 247.21,167.18 L 250.45,165.71 L 236.93,168.18 L 241.46,165.40 L 228.77,172.21 A 40 40 0 0 1 239.61,205.57 Z" fill="url(#petalGrad2)" stroke="#FF88FF" stroke-width="0.8" stroke-opacity="0.5" opacity="0.92" vector-effect="non-scaling-stroke" stroke-linejoin="round" stroke-linecap="round" />
  <path d="M 206.95,239.39 L 206.95,239.39 L 209.13,246.10 L 211.17,247.45 L 213.20,252.36 L 218.90,254.30 L 220.66,257.40 L 229.96,259.09 L 231.07,260.49 L 244.08,260.68 L 246.44,263.91 L 244.08,260.68 L 244.08,260.68 L 246.94,246.75 L 247.93,248.24 L 245.81,234.76 L 248.20,237.38 L 241.68,225.29 L 245.72,228.74 L 235.32,218.78 A 40 40 0 0 1 206.95,239.39 Z" fill="url(#petalGrad)" stroke="#FF88FF" stroke-width="0.8" stroke-opacity="0.5" opacity="0.92" vector-effect="non-scaling-stroke" stroke-linejoin="round" stroke-linecap="round" />
  <path d="M 164.68,218.78 L 164.68,218.78 L 158.97,222.93 L 158.32,225.29 L 154.28,228.74 L 154.19,234.76 L 151.80,237.38 L 153.06,246.75 L 152.07,248.24 L 155.92,260.68 L 153.56,263.91 L 155.92,260.68 L 155.92,260.68 L 170.04,259.09 L 168.93,260.49 L 181.10,254.30 L 179.34,257.40 L 188.83,247.45 L 186.80,252.36 L 193.05,239.39 A 40 40 0 0 1 164.68,218.78 Z" fill="url(#petalGrad2)" stroke="#FF88FF" stroke-width="0.8" stroke-opacity="0.5" opacity="0.92" vector-effect="non-scaling-stroke" stroke-linejoin="round" stroke-linecap="round" />
  <path d="M 171.23,172.21 L 171.23,172.21 L 165.51,168.07 L 163.07,168.18 L 158.54,165.40 L 152.79,167.18 L 149.55,165.71 L 141.03,169.81 L 139.31,169.33 L 128.67,176.82 L 124.87,175.59 L 128.67,176.82 L 128.67,176.82 L 134.55,189.76 L 132.87,189.14 L 142.51,198.80 L 139.03,198.09 L 151.42,204.04 L 146.12,203.63 L 160.39,205.57 A 40 40 0 0 1 171.23,172.21 Z" fill="url(#petalGrad)" stroke="#FF88FF" stroke-width="0.8" stroke-opacity="0.5" opacity="0.92" vector-effect="non-scaling-stroke" stroke-linejoin="round" stroke-linecap="round" />
  <line x1="200.00" y1="156.00" x2="200.00" y2="128.00" stroke="#FF44FF" stroke-width="1.2" stroke-opacity="0.4" vector-effect="non-scaling-stroke" stroke-linecap="round" />
  <line x1="193.91" y1="150.37" x2="191.71" y2="132.51" stroke="#CC00FF" stroke-width="0.7" stroke-opacity="0.3" vector-effect="non-scaling-stroke" stroke-linecap="round" />
  <line x1="206.09" y1="150.37" x2="208.29" y2="132.51" stroke="#CC00FF" stroke-width="0.7" stroke-opacity="0.3" vector-effect="non-scaling-stroke" stroke-linecap="round" />
  <line x1="241.85" y1="186.40" x2="268.48" y2="177.75" stroke="#FF44FF" stroke-width="1.2" stroke-opacity="0.4" vector-effect="non-scaling-stroke" stroke-linecap="round" />
  <line x1="245.32" y1="178.87" x2="261.63" y2="171.26" stroke="#CC00FF" stroke-width="0.7" stroke-opacity="0.3" vector-effect="non-scaling-stroke" stroke-linecap="round" />
  <line x1="249.08" y1="190.46" x2="266.75" y2="187.02" stroke="#CC00FF" stroke-width="0.7" stroke-opacity="0.3" vector-effect="non-scaling-stroke" stroke-linecap="round" />
  <line x1="225.86" y1="235.60" x2="242.32" y2="258.25" stroke="#FF44FF" stroke-width="1.2" stroke-opacity="0.4" vector-effect="non-scaling-stroke" stroke-linecap="round" />
  <line x1="234.10" y1="236.57" x2="246.38" y2="249.73" stroke="#CC00FF" stroke-width="0.7" stroke-opacity="0.3" vector-effect="non-scaling-stroke" stroke-linecap="round" />
  <line x1="224.24" y1="243.73" x2="232.97" y2="259.47" stroke="#CC00FF" stroke-width="0.7" stroke-opacity="0.3" vector-effect="non-scaling-stroke" stroke-linecap="round" />
  <line x1="174.14" y1="235.60" x2="157.68" y2="258.25" stroke="#FF44FF" stroke-width="1.2" stroke-opacity="0.4" vector-effect="non-scaling-stroke" stroke-linecap="round" />
  <line x1="175.76" y1="243.73" x2="167.03" y2="259.47" stroke="#CC00FF" stroke-width="0.7" stroke-opacity="0.3" vector-effect="non-scaling-stroke" stroke-linecap="round" />
  <line x1="165.90" y1="236.57" x2="153.62" y2="249.73" stroke="#CC00FF" stroke-width="0.7" stroke-opacity="0.3" vector-effect="non-scaling-stroke" stroke-linecap="round" />
  <line x1="158.15" y1="186.40" x2="131.52" y2="177.75" stroke="#FF44FF" stroke-width="1.2" stroke-opacity="0.4" vector-effect="non-scaling-stroke" stroke-linecap="round" />
  <line x1="150.92" y1="190.46" x2="133.25" y2="187.02" stroke="#CC00FF" stroke-width="0.7" stroke-opacity="0.3" vector-effect="non-scaling-stroke" stroke-linecap="round" />
  <line x1="154.68" y1="178.87" x2="138.37" y2="171.26" stroke="#CC00FF" stroke-width="0.7" stroke-opacity="0.3" vector-effect="non-scaling-stroke" stroke-linecap="round" />
  <circle cx="200.00" cy="157.63" r="3.1" fill="#FFAAFF" stroke="#DF00FF" stroke-width="0.8" opacity="0.8" vector-effect="non-scaling-stroke" />
  <circle cx="200.00" cy="157.63" r="1.3" fill="#FFFFFF" opacity="0.9" vector-effect="non-scaling-stroke" />
  <circle cx="200.00" cy="148.07" r="2.8" fill="#FFAAFF" stroke="#DF00FF" stroke-width="0.8" opacity="0.8" vector-effect="non-scaling-stroke" />
  <circle cx="200.00" cy="148.07" r="1.1" fill="#FFFFFF" opacity="0.9" vector-effect="non-scaling-stroke" />
  <circle cx="240.29" cy="186.91" r="3.1" fill="#FFAAFF" stroke="#DF00FF" stroke-width="0.8" opacity="0.8" vector-effect="non-scaling-stroke" />
  <circle cx="240.29" cy="186.91" r="1.3" fill="#FFFFFF" opacity="0.9" vector-effect="non-scaling-stroke" />
  <circle cx="249.39" cy="183.95" r="2.8" fill="#FFAAFF" stroke="#DF00FF" stroke-width="0.8" opacity="0.8" vector-effect="non-scaling-stroke" />
  <circle cx="249.39" cy="183.95" r="1.1" fill="#FFFFFF" opacity="0.9" vector-effect="non-scaling-stroke" />
  <circle cx="224.90" cy="234.28" r="3.1" fill="#FFAAFF" stroke="#DF00FF" stroke-width="0.8" opacity="0.8" vector-effect="non-scaling-stroke" />
  <circle cx="224.90" cy="234.28" r="1.3" fill="#FFFFFF" opacity="0.9" vector-effect="non-scaling-stroke" />
  <circle cx="230.53" cy="242.01" r="2.8" fill="#FFAAFF" stroke="#DF00FF" stroke-width="0.8" opacity="0.8" vector-effect="non-scaling-stroke" />
  <circle cx="230.53" cy="242.01" r="1.1" fill="#FFFFFF" opacity="0.9" vector-effect="non-scaling-stroke" />
  <circle cx="175.10" cy="234.28" r="3.1" fill="#FFAAFF" stroke="#DF00FF" stroke-width="0.8" opacity="0.8" vector-effect="non-scaling-stroke" />
  <circle cx="175.10" cy="234.28" r="1.3" fill="#FFFFFF" opacity="0.9" vector-effect="non-scaling-stroke" />
  <circle cx="169.47" cy="242.01" r="2.8" fill="#FFAAFF" stroke="#DF00FF" stroke-width="0.8" opacity="0.8" vector-effect="non-scaling-stroke" />
  <circle cx="169.47" cy="242.01" r="1.1" fill="#FFFFFF" opacity="0.9" vector-effect="non-scaling-stroke" />
  <circle cx="159.71" cy="186.91" r="3.1" fill="#FFAAFF" stroke="#DF00FF" stroke-width="0.8" opacity="0.8" vector-effect="non-scaling-stroke" />
  <circle cx="159.71" cy="186.91" r="1.3" fill="#FFFFFF" opacity="0.9" vector-effect="non-scaling-stroke" />
  <circle cx="150.61" cy="183.95" r="2.8" fill="#FFAAFF" stroke="#DF00FF" stroke-width="0.8" opacity="0.8" vector-effect="non-scaling-stroke" />
  <circle cx="150.61" cy="183.95" r="1.1" fill="#FFFFFF" opacity="0.9" vector-effect="non-scaling-stroke" />
  <path d="M 236.00,200.00 L 249.90,203.14 L 248.43,212.43 L 234.24,211.12 L 234.24,211.12 L 246.49,218.41 L 242.22,226.79 L 229.12,221.16 L 229.12,221.16 L 238.53,231.87 L 231.87,238.53 L 221.16,229.12 L 221.16,229.12 L 226.79,242.22 L 218.41,246.49 L 211.12,234.24 L 211.12,234.24 L 212.43,248.43 L 203.14,249.90 L 200.00,236.00 L 200.00,236.00 L 196.86,249.90 L 187.57,248.43 L 188.88,234.24 L 188.88,234.24 L 181.59,246.49 L 173.21,242.22 L 178.84,229.12 L 178.84,229.12 L 168.13,238.53 L 161.47,231.87 L 170.88,221.16 L 170.88,221.16 L 157.78,226.79 L 153.51,218.41 L 165.76,211.12 L 165.76,211.12 L 151.57,212.43 L 150.10,203.14 L 164.00,200.00 L 164.00,200.00 L 150.10,196.86 L 151.57,187.57 L 165.76,188.88 L 165.76,188.88 L 153.51,181.59 L 157.78,173.21 L 170.88,178.84 L 170.88,178.84 L 161.47,168.13 L 168.13,161.47 L 178.84,170.88 L 178.84,170.88 L 173.21,157.78 L 181.59,153.51 L 188.88,165.76 L 188.88,165.76 L 187.57,151.57 L 196.86,150.10 L 200.00,164.00 L 200.00,164.00 L 203.14,150.10 L 212.43,151.57 L 211.12,165.76 L 211.12,165.76 L 218.41,153.51 L 226.79,157.78 L 221.16,170.88 L 221.16,170.88 L 231.87,161.47 L 238.53,168.13 L 229.12,178.84 L 229.12,178.84 L 242.22,173.21 L 246.49,181.59 L 234.24,188.88 L 234.24,188.88 L 248.43,187.57 L 249.90,196.86 L 236.00,200.00 Z" fill="url(#gearGrad)" stroke="#FF88FF" stroke-width="0.8" stroke-opacity="0.6" vector-effect="non-scaling-stroke" stroke-linejoin="round" stroke-linecap="round" />
  <path d="M 218.00,200.00 L 226.81,203.17 L 224.81,210.66 L 215.59,209.00 L 215.59,209.00 L 221.63,216.15 L 216.15,221.63 L 209.00,215.59 L 209.00,215.59 L 210.66,224.81 L 203.17,226.81 L 200.00,218.00 L 200.00,218.00 L 196.83,226.81 L 189.34,224.81 L 191.00,215.59 L 191.00,215.59 L 183.85,221.63 L 178.37,216.15 L 184.41,209.00 L 184.41,209.00 L 175.19,210.66 L 173.19,203.17 L 182.00,200.00 L 182.00,200.00 L 173.19,196.83 L 175.19,189.34 L 184.41,191.00 L 184.41,191.00 L 178.37,183.85 L 183.85,178.37 L 191.00,184.41 L 191.00,184.41 L 189.34,175.19 L 196.83,173.19 L 200.00,182.00 L 200.00,182.00 L 203.17,173.19 L 210.66,175.19 L 209.00,184.41 L 209.00,184.41 L 216.15,178.37 L 221.63,183.85 L 215.59,191.00 L 215.59,191.00 L 224.81,189.34 L 226.81,196.83 L 218.00,200.00 Z" fill="#9B00CC" stroke="#FFB3FF" stroke-width="0.7" stroke-opacity="0.5" vector-effect="non-scaling-stroke" stroke-linejoin="round" stroke-linecap="round" />
  <circle cx="200" cy="200" r="16" fill="url(#centerGrad)" stroke="#FFFFFF" stroke-width="1.2" stroke-opacity="0.8" vector-effect="non-scaling-stroke" />
  <circle cx="200" cy="200" r="5" fill="#FFFFFF" opacity="0.95" vector-effect="non-scaling-stroke" />
  <line x1="253.00" y1="200.00" x2="257.00" y2="200.00" stroke="#FF88FF" stroke-width="0.8" stroke-opacity="0.5" vector-effect="non-scaling-stroke" stroke-linecap="round" />
  <line x1="250.41" y1="216.38" x2="254.21" y2="217.61" stroke="#FF88FF" stroke-width="0.8" stroke-opacity="0.5" vector-effect="non-scaling-stroke" stroke-linecap="round" />
  <line x1="242.88" y1="231.15" x2="246.11" y2="233.50" stroke="#FF88FF" stroke-width="0.8" stroke-opacity="0.5" vector-effect="non-scaling-stroke" stroke-linecap="round" />
  <line x1="231.15" y1="242.88" x2="233.50" y2="246.11" stroke="#FF88FF" stroke-width="0.8" stroke-opacity="0.5" vector-effect="non-scaling-stroke" stroke-linecap="round" />
  <line x1="216.38" y1="250.41" x2="217.61" y2="254.21" stroke="#FF88FF" stroke-width="0.8" stroke-opacity="0.5" vector-effect="non-scaling-stroke" stroke-linecap="round" />
  <line x1="200.00" y1="253.00" x2="200.00" y2="257.00" stroke="#FF88FF" stroke-width="0.8" stroke-opacity="0.5" vector-effect="non-scaling-stroke" stroke-linecap="round" />
  <line x1="183.62" y1="250.41" x2="182.39" y2="254.21" stroke="#FF88FF" stroke-width="0.8" stroke-opacity="0.5" vector-effect="non-scaling-stroke" stroke-linecap="round" />
  <line x1="168.85" y1="242.88" x2="166.50" y2="246.11" stroke="#FF88FF" stroke-width="0.8" stroke-opacity="0.5" vector-effect="non-scaling-stroke" stroke-linecap="round" />
  <line x1="157.12" y1="231.15" x2="153.89" y2="233.50" stroke="#FF88FF" stroke-width="0.8" stroke-opacity="0.5" vector-effect="non-scaling-stroke" stroke-linecap="round" />
  <line x1="149.59" y1="216.38" x2="145.79" y2="217.61" stroke="#FF88FF" stroke-width="0.8" stroke-opacity="0.5" vector-effect="non-scaling-stroke" stroke-linecap="round" />
  <line x1="147.00" y1="200.00" x2="143.00" y2="200.00" stroke="#FF88FF" stroke-width="0.8" stroke-opacity="0.5" vector-effect="non-scaling-stroke" stroke-linecap="round" />
  <line x1="149.59" y1="183.62" x2="145.79" y2="182.39" stroke="#FF88FF" stroke-width="0.8" stroke-opacity="0.5" vector-effect="non-scaling-stroke" stroke-linecap="round" />
  <line x1="157.12" y1="168.85" x2="153.89" y2="166.50" stroke="#FF88FF" stroke-width="0.8" stroke-opacity="0.5" vector-effect="non-scaling-stroke" stroke-linecap="round" />
  <line x1="168.85" y1="157.12" x2="166.50" y2="153.89" stroke="#FF88FF" stroke-width="0.8" stroke-opacity="0.5" vector-effect="non-scaling-stroke" stroke-linecap="round" />
  <line x1="183.62" y1="149.59" x2="182.39" y2="145.79" stroke="#FF88FF" stroke-width="0.8" stroke-opacity="0.5" vector-effect="non-scaling-stroke" stroke-linecap="round" />
  <line x1="200.00" y1="147.00" x2="200.00" y2="143.00" stroke="#FF88FF" stroke-width="0.8" stroke-opacity="0.5" vector-effect="non-scaling-stroke" stroke-linecap="round" />
  <line x1="216.38" y1="149.59" x2="217.61" y2="145.79" stroke="#FF88FF" stroke-width="0.8" stroke-opacity="0.5" vector-effect="non-scaling-stroke" stroke-linecap="round" />
  <line x1="231.15" y1="157.12" x2="233.50" y2="153.89" stroke="#FF88FF" stroke-width="0.8" stroke-opacity="0.5" vector-effect="non-scaling-stroke" stroke-linecap="round" />
  <line x1="242.88" y1="168.85" x2="246.11" y2="166.50" stroke="#FF88FF" stroke-width="0.8" stroke-opacity="0.5" vector-effect="non-scaling-stroke" stroke-linecap="round" />
  <line x1="250.41" y1="183.62" x2="254.21" y2="182.39" stroke="#FF88FF" stroke-width="0.8" stroke-opacity="0.5" vector-effect="non-scaling-stroke" stroke-linecap="round" />
</svg>